# Wavefront OBJ file
# Exported by Misfit Model 3D 1.3.6
# Sat Aug 23 23:14:58 2008

mtllib plant.mtl

# 95 Vertices
v -33.897916 47.386442 45.318193
v -29.231795 57.131229 39.972574
v -27.287578 63.03716 28.43729
v -23.787987 62.741863 17.464704
v -5.123502 51.520595 5.92942
v -4.734659 51.225298 5.92942
v -2.401598 37.641657 3.397284
v -0.457379 -3.69986 -1.666987
v -0.457379 -5.176342 -1.385638
v 1.097995 -5.176342 -1.385638
v 0.709151 -3.109267 -1.666987
v -1.623911 37.936954 3.397284
v -2.790441 51.225298 5.92942
v 4.208741 56.835933 11.275039
v 6.152958 60.674788 18.0274
v 4.597585 61.855974 27.874593
v -2.012754 58.903009 37.159089
v 44.648459 34.0981 -18.829239
v 37.260433 42.956996 -15.734407
v 29.483565 47.977037 -6.731258
v 22.095539 46.500554 1.709193
v 1.486837 33.212209 3.959981
v 1.097994 32.916912 3.678632
v -0.45738 19.037975 4.804026
v -0.068536 15.789713 4.241329
v -1.235067 15.494416 3.959981
v -1.235067 29.66865 3.678633
v -0.45738 32.326319 2.834587
v -5.123502 37.641657 -5.043167
v -4.345815 41.480512 -12.076877
v 1.097993 43.547588 -19.954631
v 11.207922 41.775809 -25.581599
v -40.508255 1.615477 -17.703843
v -38.564038 8.702594 -12.076876
v -31.564856 16.085008 -9.54474
v -22.621457 18.447381 -8.700696
v -7.845405 10.179078 0.583801
v -7.845405 9.883781 0.865149
v -1.62391 1.024885 -1.666987
v -1.235066 -1.337487 -2.511032
v -0.846223 -1.92808 -1.666987
v -5.512344 7.816706 1.427846
v -7.456562 9.588485 2.271891
v -11.344996 9.883781 9.586949
v -16.788804 9.588485 12.963129
v -24.176829 7.816705 12.96313
v -31.176012 4.273146 8.180207
v 44.648458 57.426527 -18.266542
v 36.871589 65.990127 -15.17171
v 28.705877 70.124278 -5.887213
v 20.540165 68.057202 1.709193
v 0.320306 54.178264 1.709194
v -0.068537 53.882967 1.427845
v -1.623911 40.00403 1.709194
v -0.068536 -1.92808 1.990542
v 0.320308 -3.404563 1.427845
v -0.846223 -3.69986 0.865149
v -1.235066 -1.632784 1.427845
v -2.401598 40.00403 1.146497
v -1.623911 53.587671 0.5838
v -5.901189 59.198305 -7.293954
v -5.123503 63.627753 -14.046315
v 1.097992 66.285423 -21.361373
v 11.596765 64.80894 -26.425644
v -54.506619 21.695642 0.302453
v -47.896281 31.440428 2.271892
v -37.397508 38.527546 -1.666986
v -26.509891 38.527546 -5.324515
v -6.290032 27.010981 2.271891
v -5.901188 27.010981 2.553239
v -2.012753 13.722637 1.427846
v -2.012753 10.474375 1.427846
v -1.62391 10.179078 2.553239
v -3.179284 23.762719 3.678633
v -4.734658 26.715685 4.241329
v -5.512345 31.145133 13.525826
v -9.789622 34.098098 19.71549
v -19.121865 34.393395 23.935716
v -30.009482 31.145132 23.37302
v 22.873227 6.340224 -22.205419
v 24.039757 11.360265 -21.080025
v 24.4286 13.722637 -18.266542
v 20.92901 16.380306 -8.138
v 16.262888 16.08501 -3.355077
v 1.486838 9.883782 -0.260245
v 0.320307 3.387257 1.146497
v 1.097994 0.434292 0.5838
v 0.320308 0.138995 0.302452
v -0.457379 4.86374 0.865149
v 0.320307 9.883782 -0.541593
v -3.956971 13.42734 -4.761819
v -3.956971 16.970899 -8.419348
v -0.846224 19.628568 -13.20227
v 9.263706 16.675602 -21.361373
v 19.373636 10.179079 -23.049464

# 249 Texture Coordinates
vt 0.378906 0.746094
vt 0.375 0.871094
vt 0.269531 0.839844
vt 0.351562 0.488281
vt 0.378906 0.746094
vt 0.269531 0.839844
vt 0.296875 0.375
vt 0.351562 0.488281
vt 0.269531 0.839844
vt 0.296875 0.375
vt 0.269531 0.839844
vt 0.207031 0.75
vt 0.296875 0.375
vt 0.207031 0.75
vt 0.152344 0.613281
vt 0.296875 0.375
vt 0.152344 0.613281
vt 0.121094 0.523438
vt 0.296875 0.375
vt 0.121094 0.523438
vt 0.109375 0.40625
vt 0.128906 0.25
vt 0.296875 0.375
vt 0.109375 0.40625
vt 0.882812 0.371094
vt 0.878906 0.371094
vt 0.898438 0.367188
vt 0.410156 0.164062
vt 0.339844 0.050781
vt 0.320312 0.210938
vt 0.410156 0.164062
vt 0.339844 0.050781
vt 0.320312 0.210938
vt 0.34375 0.042969
vt 0.414062 0.183594
vt 0.304688 0.21875
vt 0.34375 0.042969
vt 0.414062 0.183594
vt 0.304688 0.21875
vt 0.34375 0.042969
vt 0.414062 0.183594
vt 0.304688 0.21875
vt 0.34375 0.042969
vt 0.414062 0.183594
vt 0.304688 0.21875
vt 0.378906 0.769531
vt 0.40625 0.859375
vt 0.203125 0.753906
vt 0.425781 0.601562
vt 0.378906 0.769531
vt 0.203125 0.753906
vt 0.320312 0.398438
vt 0.425781 0.601562
vt 0.203125 0.753906
vt 0.335938 0.398438
vt 0.300781 0.90625
vt 0.207031 0.835938
vt 0.335938 0.398438
vt 0.207031 0.835938
vt 0.136719 0.746094
vt 0.335938 0.398438
vt 0.136719 0.746094
vt 0.035156 0.582031
vt 0.335938 0.398438
vt 0.035156 0.582031
vt 0.042969 0.425781
vt 0.128906 0.25
vt 0.335938 0.398438
vt 0.042969 0.425781
vt 0.390625 0.699219
vt 0.394531 0.699219
vt 0.378906 0.699219
vt 0.390625 0.699219
vt 0.378906 0.699219
vt 0.378906 0.679688
vt 0.398438 0.621094
vt 0.390625 0.699219
vt 0.378906 0.679688
vt 0.34375 0.042969
vt 0.414062 0.183594
vt 0.304688 0.21875
vt 0.34375 0.042969
vt 0.414062 0.183594
vt 0.304688 0.21875
vt 0.289062 0.828125
vt 0.398438 0.851562
vt 0.433594 0.730469
vt 0.171875 0.773438
vt 0.289062 0.828125
vt 0.433594 0.730469
vt 0.085938 0.652344
vt 0.171875 0.773438
vt 0.433594 0.730469
vt 0.085938 0.652344
vt 0.433594 0.730469
vt 0.421875 0.609375
vt 0.085938 0.652344
vt 0.421875 0.609375
vt 0.382812 0.546875
vt 0.085938 0.652344
vt 0.382812 0.546875
vt 0.292969 0.425781
vt 0.085938 0.652344
vt 0.292969 0.425781
vt 0.238281 0.355469
vt 0.191406 0.296875
vt 0.085938 0.652344
vt 0.238281 0.355469
vt 0.0 1.0
vt 0.0 1.0
vt 0.0 1.0
vt 0.347656 0.121094
vt 0.316406 0.203125
vt 0.378906 0.171875
vt 0.394531 0.15625
vt 0.347656 0.121094
vt 0.378906 0.171875
vt 0.324219 0.199219
vt 0.386719 0.160156
vt 0.351562 0.105469
vt 0.324219 0.199219
vt 0.386719 0.160156
vt 0.351562 0.105469
vt 0.6875 0.902344
vt 0.703125 0.96875
vt 0.867188 0.800781
vt 0.675781 0.785156
vt 0.6875 0.902344
vt 0.867188 0.800781
vt 0.695312 0.625
vt 0.675781 0.785156
vt 0.867188 0.800781
vt 0.695312 0.625
vt 0.867188 0.800781
vt 0.917969 0.746094
vt 0.695312 0.625
vt 0.917969 0.746094
vt 0.925781 0.664062
vt 0.695312 0.625
vt 0.925781 0.664062
vt 0.898438 0.578125
vt 0.695312 0.625
vt 0.898438 0.578125
vt 0.828125 0.488281
vt 0.679688 0.601562
vt 0.695312 0.625
vt 0.828125 0.488281
vt 0.65625 0.628906
vt 0.667969 0.644531
vt 0.644531 0.660156
vt 0.644531 0.582031
vt 0.65625 0.628906
vt 0.644531 0.660156
vt 0.34375 0.042969
vt 0.414062 0.183594
vt 0.304688 0.21875
vt 0.34375 0.042969
vt 0.414062 0.183594
vt 0.304688 0.21875
vt 0.34375 0.042969
vt 0.414062 0.183594
vt 0.304688 0.21875
vt 0.410156 0.164062
vt 0.339844 0.050781
vt 0.320312 0.210938
vt 0.410156 0.164062
vt 0.339844 0.050781
vt 0.320312 0.210938
vt 0.820312 0.863281
vt 0.710938 0.96875
vt 0.683594 0.734375
vt 0.925781 0.730469
vt 0.820312 0.863281
vt 0.683594 0.734375
vt 0.960938 0.65625
vt 0.925781 0.730469
vt 0.683594 0.734375
vt 0.960938 0.65625
vt 0.683594 0.734375
vt 0.691406 0.621094
vt 0.960938 0.65625
vt 0.691406 0.621094
vt 0.667969 0.527344
vt 0.960938 0.65625
vt 0.667969 0.527344
vt 0.675781 0.402344
vt 0.960938 0.65625
vt 0.675781 0.402344
vt 0.699219 0.292969
vt 0.742188 0.203125
vt 0.960938 0.65625
vt 0.699219 0.292969
vt 0.625 0.203125
vt 0.640625 0.222656
vt 0.636719 0.164062
vt 0.640625 0.222656
vt 0.636719 0.164062
vt 0.652344 0.160156
vt 0.34375 0.042969
vt 0.414062 0.183594
vt 0.304688 0.21875
vt 0.351562 0.082031
vt 0.332031 0.171875
vt 0.371094 0.164062
vt 0.351562 0.082031
vt 0.332031 0.171875
vt 0.371094 0.164062
vt 0.363281 0.914062
vt 0.460938 0.84375
vt 0.433594 0.789062
vt 0.277344 0.871094
vt 0.363281 0.914062
vt 0.433594 0.789062
vt 0.277344 0.871094
vt 0.433594 0.789062
vt 0.453125 0.6875
vt 0.132812 0.804688
vt 0.277344 0.871094
vt 0.453125 0.6875
vt 0.082031 0.675781
vt 0.132812 0.804688
vt 0.453125 0.6875
vt 0.082031 0.675781
vt 0.453125 0.6875
vt 0.410156 0.570312
vt 0.082031 0.675781
vt 0.410156 0.570312
vt 0.355469 0.496094
vt 0.082031 0.675781
vt 0.355469 0.496094
vt 0.265625 0.367188
vt 0.136719 0.367188
vt 0.082031 0.675781
vt 0.265625 0.367188
vt 0.136719 0.367188
vt 0.265625 0.367188
vt 0.15625 0.285156
vt 0.324219 0.199219
vt 0.386719 0.160156
vt 0.351562 0.105469
vt 0.324219 0.199219
vt 0.386719 0.160156
vt 0.351562 0.105469
vt 0.324219 0.199219
vt 0.386719 0.160156
vt 0.351562 0.105469
vt 0.324219 0.199219
vt 0.386719 0.160156
vt 0.351562 0.105469

# 249 Vertex Normals
vn 0.02677 0.708526 0.705177
vn 0.061962 0.457057 0.887277
vn 0.037906 0.896554 0.44131
vn 0.073472 0.966662 0.245287
vn 0.02677 0.708526 0.705177
vn 0.037906 0.896554 0.44131
vn 0.056998 0.952736 -0.298405
vn 0.073472 0.966662 0.245287
vn 0.037906 0.896554 0.44131
vn 0.056998 0.952736 -0.298405
vn 0.037906 0.896554 0.44131
vn 0.002664 0.996983 0.077579
vn 0.056998 0.952736 -0.298405
vn 0.002664 0.996983 0.077579
vn 0.071259 0.946422 -0.314971
vn 0.056998 0.952736 -0.298405
vn 0.071259 0.946422 -0.314971
vn 0.028987 0.78541 -0.618296
vn 0.056998 0.952736 -0.298405
vn 0.028987 0.78541 -0.618296
vn 0.004236 0.396302 -0.91811
vn 0.05573 0.44031 -0.896115
vn 0.056998 0.952736 -0.298405
vn 0.004236 0.396302 -0.91811
vn 0.0 0.092017 -0.995757
vn 0.05573 0.44031 -0.896115
vn 0.004236 0.396302 -0.91811
vn -0.03804 0.161317 -0.986169
vn 0.0 0.092017 -0.995757
vn 0.004236 0.396302 -0.91811
vn -0.03804 0.161317 -0.986169
vn 0.004236 0.396302 -0.91811
vn -0.058094 0.139782 -0.988477
vn -0.003767 0.017517 -0.999839
vn -0.03804 0.161317 -0.986169
vn -0.058094 0.139782 -0.988477
vn -0.003767 0.017517 -0.999839
vn -0.058094 0.139782 -0.988477
vn 0.011516 -0.068202 -0.997605
vn 0.047242 -0.160844 -0.985849
vn -0.003767 0.017517 -0.999839
vn 0.011516 -0.068202 -0.997605
vn 0.047242 -0.160844 -0.985849
vn 0.011516 -0.068202 -0.997605
vn 0.0 -0.134866 -0.990864
vn 0.206431 0.744075 -0.635404
vn 0.281936 0.517389 -0.807974
vn 0.053051 0.914888 -0.400208
vn -0.077603 0.966952 -0.242863
vn 0.206431 0.744075 -0.635404
vn 0.053051 0.914888 -0.400208
vn -0.301659 0.93153 0.20311
vn -0.077603 0.966952 -0.242863
vn 0.053051 0.914888 -0.400208
vn -0.301659 0.93153 0.20311
vn 0.053051 0.914888 -0.400208
vn -0.08651 0.994905 -0.051765
vn -0.301659 0.93153 0.20311
vn -0.08651 0.994905 -0.051765
vn -0.308112 0.915852 0.257453
vn -0.301659 0.93153 0.20311
vn -0.308112 0.915852 0.257453
vn -0.378649 0.749442 0.543104
vn -0.301659 0.93153 0.20311
vn -0.378649 0.749442 0.543104
vn -0.517821 0.434695 0.736819
vn -0.575834 0.29524 0.762397
vn -0.301659 0.93153 0.20311
vn -0.517821 0.434695 0.736819
vn -0.358553 0.02915 0.933054
vn -0.575834 0.29524 0.762397
vn -0.517821 0.434695 0.736819
vn -0.358553 0.02915 0.933054
vn -0.517821 0.434695 0.736819
vn -0.51163 0.178085 0.840548
vn -0.38309 -0.028959 0.923257
vn -0.358553 0.02915 0.933054
vn -0.51163 0.178085 0.840548
vn -0.38309 -0.028959 0.923257
vn -0.51163 0.178085 0.840548
vn -0.503999 -0.093897 0.858585
vn -0.184712 -0.189177 0.964413
vn -0.38309 -0.028959 0.923257
vn -0.503999 -0.093897 0.858585
vn -0.87781 0.287626 0.383042
vn -0.940255 -0.01221 0.340253
vn -0.693792 0.573054 0.436191
vn -0.516629 0.707225 0.482626
vn -0.87781 0.287626 0.383042
vn -0.693792 0.573054 0.436191
vn -0.027204 0.930508 0.365259
vn -0.516629 0.707225 0.482626
vn -0.693792 0.573054 0.436191
vn -0.027204 0.930508 0.365259
vn -0.693792 0.573054 0.436191
vn -0.411474 0.829555 0.377529
vn -0.027204 0.930508 0.365259
vn -0.411474 0.829555 0.377529
vn -0.027134 0.922679 0.384613
vn -0.027204 0.930508 0.365259
vn -0.027134 0.922679 0.384613
vn 0.281638 0.92391 0.258979
vn -0.027204 0.930508 0.365259
vn 0.281638 0.92391 0.258979
vn 0.718483 0.695215 0.021412
vn 0.899815 0.432676 -0.055892
vn -0.027204 0.930508 0.365259
vn 0.718483 0.695215 0.021412
vn 0.857022 0.402516 -0.321705
vn 0.899815 0.432676 -0.055892
vn 0.718483 0.695215 0.021412
vn 0.857022 0.402516 -0.321705
vn 0.718483 0.695215 0.021412
vn 0.807056 0.590359 0.011685
vn 0.912578 0.401695 -0.07643
vn 0.857022 0.402516 -0.321705
vn 0.807056 0.590359 0.011685
vn 0.912578 0.401695 -0.07643
vn 0.807056 0.590359 0.011685
vn 0.954717 0.251432 0.159051
vn 0.934228 0.246036 -0.258234
vn 0.912578 0.401695 -0.07643
vn 0.954717 0.251432 0.159051
vn 0.218922 0.788719 -0.574452
vn 0.314389 0.561996 -0.765062
vn 0.060164 0.937988 -0.341408
vn -0.085344 0.979513 -0.182403
vn 0.218922 0.788719 -0.574452
vn 0.060164 0.937988 -0.341408
vn -0.3221 0.902948 0.284494
vn -0.085344 0.979513 -0.182403
vn 0.060164 0.937988 -0.341408
vn -0.3221 0.902948 0.284494
vn 0.060164 0.937988 -0.341408
vn -0.090276 0.995917 -0.000407
vn -0.3221 0.902948 0.284494
vn -0.090276 0.995917 -0.000407
vn -0.341535 0.888477 0.306533
vn -0.3221 0.902948 0.284494
vn -0.341535 0.888477 0.306533
vn -0.428909 0.700491 0.570394
vn -0.3221 0.902948 0.284494
vn -0.428909 0.700491 0.570394
vn -0.528714 0.261676 0.807457
vn -0.542183 0.266113 0.797008
vn -0.3221 0.902948 0.284494
vn -0.528714 0.261676 0.807457
vn -0.459237 -0.103062 0.882315
vn -0.542183 0.266113 0.797008
vn -0.528714 0.261676 0.807457
vn -0.553718 0.041034 0.831692
vn -0.459237 -0.103062 0.882315
vn -0.528714 0.261676 0.807457
vn -0.553718 0.041034 0.831692
vn -0.528714 0.261676 0.807457
vn -0.53778 0.014908 0.842953
vn -0.511449 -0.150807 0.845977
vn -0.553718 0.041034 0.831692
vn -0.53778 0.014908 0.842953
vn -0.511449 -0.150807 0.845977
vn -0.53778 0.014908 0.842953
vn -0.429096 -0.248864 0.868299
vn -0.416087 -0.365266 0.832738
vn -0.511449 -0.150807 0.845977
vn -0.429096 -0.248864 0.868299
vn -0.416087 -0.365266 0.832738
vn -0.429096 -0.248864 0.868299
vn -0.349412 -0.306735 0.885339
vn -0.592699 0.622463 0.511124
vn -0.709555 0.358751 0.606489
vn -0.364808 0.843848 0.393493
vn -0.173581 0.929553 0.32527
vn -0.592699 0.622463 0.511124
vn -0.364808 0.843848 0.393493
vn 0.259131 0.965209 -0.034977
vn -0.173581 0.929553 0.32527
vn -0.364808 0.843848 0.393493
vn 0.259131 0.965209 -0.034977
vn -0.364808 0.843848 0.393493
vn -0.104334 0.980774 0.164916
vn 0.259131 0.965209 -0.034977
vn -0.104334 0.980774 0.164916
vn 0.263768 0.96457 -0.005502
vn 0.259131 0.965209 -0.034977
vn 0.263768 0.96457 -0.005502
vn 0.497481 0.837473 -0.226166
vn 0.259131 0.965209 -0.034977
vn 0.497481 0.837473 -0.226166
vn 0.47587 0.851163 -0.221515
vn 0.189708 0.981837 -0.002607
vn 0.259131 0.965209 -0.034977
vn 0.47587 0.851163 -0.221515
vn 0.517859 0.754077 -0.403969
vn 0.189708 0.981837 -0.002607
vn 0.47587 0.851163 -0.221515
vn 0.517859 0.754077 -0.403969
vn 0.47587 0.851163 -0.221515
vn 0.850815 0.302326 -0.429781
vn 0.913346 0.127048 -0.386856
vn 0.517859 0.754077 -0.403969
vn 0.850815 0.302326 -0.429781
vn 0.913346 0.127048 -0.386856
vn 0.850815 0.302326 -0.429781
vn 0.985454 0.057328 -0.159981
vn 0.945172 0.0 -0.326574
vn 0.913346 0.127048 -0.386856
vn 0.985454 0.057328 -0.159981
vn 0.237376 0.475063 -0.84733
vn 0.359062 0.123941 -0.925048
vn 0.250005 0.525659 -0.81313
vn 0.200618 0.813589 -0.545733
vn 0.237376 0.475063 -0.84733
vn 0.250005 0.525659 -0.81313
vn 0.200618 0.813589 -0.545733
vn 0.250005 0.525659 -0.81313
vn 0.189577 0.949372 -0.250508
vn 0.102007 0.992469 -0.067825
vn 0.200618 0.813589 -0.545733
vn 0.189577 0.949372 -0.250508
vn -0.030275 0.918439 0.394403
vn 0.102007 0.992469 -0.067825
vn 0.189577 0.949372 -0.250508
vn -0.030275 0.918439 0.394403
vn 0.189577 0.949372 -0.250508
vn 0.084979 0.97541 0.203358
vn -0.030275 0.918439 0.394403
vn 0.084979 0.97541 0.203358
vn -0.108528 0.810817 0.57515
vn -0.030275 0.918439 0.394403
vn -0.108528 0.810817 0.57515
vn -0.152701 0.686383 0.711028
vn -0.130749 0.478752 0.86816
vn -0.030275 0.918439 0.394403
vn -0.152701 0.686383 0.711028
vn -0.130749 0.478752 0.86816
vn -0.152701 0.686383 0.711028
vn -0.204731 0.487366 0.848858
vn -0.130749 0.478752 0.86816
vn -0.204731 0.487366 0.848858
vn -0.295405 0.109689 0.949054
vn -0.302652 -0.082814 0.949496
vn -0.130749 0.478752 0.86816
vn -0.295405 0.109689 0.949054
vn -0.302652 -0.082814 0.949496
vn -0.295405 0.109689 0.949054
vn -0.453203 -0.224183 0.862756
vn -0.246777 -0.243715 0.937925
vn -0.302652 -0.082814 0.949496
vn -0.453203 -0.224183 0.862756

# Group, 83 grouped triangles

usemtl plant1.png
o Group
g Group

f 2/1/1 1/2/2 17/3/3
f 3/4/4 2/5/5 17/6/6
f 4/7/7 3/8/8 17/9/9
f 4/10/10 17/11/11 16/12/12
f 4/13/13 16/14/14 15/15/15
f 4/16/16 15/17/17 14/18/18
f 4/19/19 14/20/20 13/21/21
f 5/22/22 4/23/23 13/24/24
f 6/25/25 5/26/26 13/27/27
f 7/28/28 6/29/29 13/30/30
f 7/31/31 13/32/32 12/33/33
f 8/34/34 7/35/35 12/36/36
f 8/37/37 12/38/38 11/39/39
f 9/40/40 8/41/41 11/42/42
f 9/43/43 11/44/44 10/45/45
f 19/46/46 18/47/47 32/48/48
f 20/49/49 19/50/50 32/51/51
f 21/52/52 20/53/53 32/54/54
f 21/55/55 32/56/56 31/57/57
f 21/58/58 31/59/59 30/60/60
f 21/61/61 30/62/62 29/63/63
f 21/64/64 29/65/65 28/66/66
f 22/67/67 21/68/68 28/69/69
f 23/70/70 22/71/71 28/72/72
f 23/73/73 28/74/74 27/75/75
f 24/76/76 23/77/77 27/78/78
f 24/79/79 27/80/80 26/81/81
f 25/82/82 24/83/83 26/84/84
f 34/85/85 33/86/86 47/87/87
f 35/88/88 34/89/89 47/90/90
f 36/91/91 35/92/92 47/93/93
f 36/94/94 47/95/95 46/96/96
f 36/97/97 46/98/98 45/99/99
f 36/100/100 45/101/101 44/102/102
f 36/103/103 44/104/104 43/105/105
f 37/106/106 36/107/107 43/108/108
f 38/109/109 37/110/110 43/111/111
f 38/112/112 43/113/113 42/114/114
f 39/115/115 38/116/116 42/117/117
f 39/118/118 42/119/119 41/120/120
f 40/121/121 39/122/122 41/123/123
f 49/124/124 48/125/125 64/126/126
f 50/127/127 49/128/128 64/129/129
f 51/130/130 50/131/131 64/132/132
f 51/133/133 64/134/134 63/135/135
f 51/136/136 63/137/137 62/138/138
f 51/139/139 62/140/140 61/141/141
f 51/142/142 61/143/143 60/144/144
f 52/145/145 51/146/146 60/147/147
f 53/148/148 52/149/149 60/150/150
f 54/151/151 53/152/152 60/153/153
f 54/154/154 60/155/155 59/156/156
f 55/157/157 54/158/158 59/159/159
f 55/160/160 59/161/161 58/162/162
f 56/163/163 55/164/164 58/165/165
f 56/166/166 58/167/167 57/168/168
f 66/169/169 65/170/170 79/171/171
f 67/172/172 66/173/173 79/174/174
f 68/175/175 67/176/176 79/177/177
f 68/178/178 79/179/179 78/180/180
f 68/181/181 78/182/182 77/183/183
f 68/184/184 77/185/185 76/186/186
f 68/187/187 76/188/188 75/189/189
f 69/190/190 68/191/191 75/192/192
f 70/193/193 69/194/194 75/195/195
f 70/196/196 75/197/197 74/198/198
f 71/199/199 70/200/200 74/201/201
f 71/202/202 74/203/203 73/204/204
f 72/205/205 71/206/206 73/207/207
f 81/208/208 80/209/209 95/210/210
f 82/211/211 81/212/212 95/213/213
f 82/214/214 95/215/215 94/216/216
f 83/217/217 82/218/218 94/219/219
f 84/220/220 83/221/221 94/222/222
f 84/223/223 94/224/224 93/225/225
f 84/226/226 93/227/227 92/228/228
f 84/229/229 92/230/230 91/231/231
f 85/232/232 84/233/233 91/234/234
f 85/235/235 91/236/236 90/237/237
f 85/238/238 90/239/239 89/240/240
f 86/241/241 85/242/242 89/243/243
f 86/244/244 89/245/245 88/246/246
f 87/247/247 86/248/248 88/249/249
